<svg width="1073" height="1527" viewBox="0 0 1073 1527" fill="none" xmlns="http://www.w3.org/2000/svg">
<path d="M6.00085 1119.85L219.943 1018.23M6.00085 1019.12L219.943 916.604M6.00082 713.359L219.943 611.736L219.943 1018.23M219.943 713.359L6.00083 814.981M219.943 814.981L6.00084 916.604M219.943 1018.23L1075.71 611.736L1075.71 306.868L861.77 408.491L861.77 306.868M861.77 205.245L861.77 306.868M861.77 205.245L1075.71 103.623M861.77 205.245L861.77 103.623L1075.71 2.00003M861.77 306.868L1075.71 205.245" stroke="url(#paint0_linear)" stroke-opacity="0.3" stroke-width="2"/>
<path d="M1076.6 814.981L861.77 916.942M6.00012 1323.09L219.943 1221.56M219.943 1526.34L219.943 1221.56M219.943 1221.56L861.77 916.942M861.77 1018.31L433.885 1221.56L433.885 1526.34M647.827 1221.56L861.77 1120.02L861.77 916.942" stroke="url(#paint1_linear)" stroke-opacity="0.4" stroke-width="2"/>
<path d="M861.77 713.359L861.77 611.736M861.77 611.736L433.885 814.981L433.885 306.868M861.77 611.736L861.77 510.113L647.827 611.736L647.827 2.0001L433.885 103.623M219.942 306.868L433.885 205.245L433.885 306.868M219.942 408.491L433.885 306.868" stroke="url(#paint2_linear)" stroke-opacity="0.2" stroke-width="2"/>
<path d="M219.942 510.113L433.885 408.491" stroke="url(#paint3_linear)" stroke-opacity="0.2" stroke-width="2"/>
<circle cx="861" cy="713" r="10" fill="white" fill-opacity="0.2"/>
<circle cx="861" cy="713" r="5" fill="url(#paint4_linear)"/>
<circle cx="6" cy="713" r="6" fill="white" fill-opacity="0.2"/>
<circle cx="6" cy="713" r="3" fill="url(#paint5_linear)"/>
<circle cx="6" cy="815" r="6" fill="white" fill-opacity="0.2"/>
<circle cx="6" cy="815" r="3" fill="url(#paint6_linear)"/>
<circle cx="220" cy="510" r="6" fill="white" fill-opacity="0.2"/>
<circle cx="220" cy="510" r="3" fill="url(#paint7_linear)"/>
<circle cx="220" cy="408" r="6" fill="white" fill-opacity="0.2"/>
<circle cx="220" cy="408" r="3" fill="url(#paint8_linear)"/>
<circle cx="433" cy="104" r="6" fill="white" fill-opacity="0.2"/>
<circle cx="433" cy="104" r="3" fill="url(#paint9_linear)"/>
<circle cx="220" cy="307" r="6" fill="white" fill-opacity="0.2"/>
<circle cx="220" cy="307" r="3" fill="url(#paint10_linear)"/>
<circle cx="6" cy="917" r="6" fill="white" fill-opacity="0.2"/>
<circle cx="6" cy="917" r="3" fill="url(#paint11_linear)"/>
<circle cx="6" cy="1019" r="6" fill="white" fill-opacity="0.2"/>
<circle cx="6" cy="1019" r="3" fill="url(#paint12_linear)"/>
<defs>
<linearGradient id="paint0_linear" x1="540.857" y1="1119.85" x2="540.857" y2="611.736" gradientUnits="userSpaceOnUse">
<stop stop-color="#91EBFF"/>
<stop offset="1" stop-color="#8497FF"/>
</linearGradient>
<linearGradient id="paint1_linear" x1="541.302" y1="1526.34" x2="541.302" y2="814.981" gradientUnits="userSpaceOnUse">
<stop stop-color="#91EBFF"/>
<stop offset="1" stop-color="#8497FF"/>
</linearGradient>
<linearGradient id="paint2_linear" x1="540.856" y1="814.981" x2="540.856" y2="205.245" gradientUnits="userSpaceOnUse">
<stop stop-color="#91EBFF"/>
<stop offset="1" stop-color="#8497FF"/>
</linearGradient>
<linearGradient id="paint3_linear" x1="326.914" y1="510.113" x2="326.914" y2="408.491" gradientUnits="userSpaceOnUse">
<stop stop-color="#91EBFF"/>
<stop offset="1" stop-color="#8497FF"/>
</linearGradient>
<linearGradient id="paint4_linear" x1="857.5" y1="709.5" x2="864.5" y2="716.5" gradientUnits="userSpaceOnUse">
<stop stop-color="#91EBFF"/>
<stop offset="1" stop-color="#8497FF"/>
</linearGradient>
<linearGradient id="paint5_linear" x1="3.9" y1="710.9" x2="8.1" y2="715.1" gradientUnits="userSpaceOnUse">
<stop stop-color="#91EBFF"/>
<stop offset="1" stop-color="#8497FF"/>
</linearGradient>
<linearGradient id="paint6_linear" x1="3.9" y1="812.9" x2="8.1" y2="817.1" gradientUnits="userSpaceOnUse">
<stop stop-color="#91EBFF"/>
<stop offset="1" stop-color="#8497FF"/>
</linearGradient>
<linearGradient id="paint7_linear" x1="217.9" y1="507.9" x2="222.1" y2="512.1" gradientUnits="userSpaceOnUse">
<stop stop-color="#91EBFF"/>
<stop offset="1" stop-color="#8497FF"/>
</linearGradient>
<linearGradient id="paint8_linear" x1="217.9" y1="405.9" x2="222.1" y2="410.1" gradientUnits="userSpaceOnUse">
<stop stop-color="#91EBFF"/>
<stop offset="1" stop-color="#8497FF"/>
</linearGradient>
<linearGradient id="paint9_linear" x1="430.9" y1="101.9" x2="435.1" y2="106.1" gradientUnits="userSpaceOnUse">
<stop stop-color="#91EBFF"/>
<stop offset="1" stop-color="#8497FF"/>
</linearGradient>
<linearGradient id="paint10_linear" x1="217.9" y1="304.9" x2="222.1" y2="309.1" gradientUnits="userSpaceOnUse">
<stop stop-color="#91EBFF"/>
<stop offset="1" stop-color="#8497FF"/>
</linearGradient>
<linearGradient id="paint11_linear" x1="3.9" y1="914.9" x2="8.1" y2="919.1" gradientUnits="userSpaceOnUse">
<stop stop-color="#91EBFF"/>
<stop offset="1" stop-color="#8497FF"/>
</linearGradient>
<linearGradient id="paint12_linear" x1="3.9" y1="1016.9" x2="8.1" y2="1021.1" gradientUnits="userSpaceOnUse">
<stop stop-color="#91EBFF"/>
<stop offset="1" stop-color="#8497FF"/>
</linearGradient>
</defs>
</svg>
